<?xml version="1.0" encoding="utf-8"?>
<!-- Generator: Adobe Illustrator 24.0.3, SVG Export Plug-In . SVG Version: 6.00 Build 0)  -->
<svg version="1.1" id="レイヤー_1" xmlns="http://www.w3.org/2000/svg" xmlns:xlink="http://www.w3.org/1999/xlink" x="0px"
	 y="0px" width="1018.4px" height="3px" viewBox="0 0 1018.4 3" enable-background="new 0 0 1018.4 3" xml:space="preserve">
<g>
	<path fill="#333333" d="M1015.2,3h-94.5V0h94.5V3z"/>
	<path fill="#CC6060" d="M914.4,3h-94.5V0h94.5V3z"/>
	<path fill="#FFD655" d="M811.3,3h-94.5V0h94.5V3z"/>
	<path fill="#6FA562" d="M709.4,3h-94.5V0h94.5V3z"/>
	<path fill="#C1709E" d="M607.4,3h-94.5V0h94.5V3z"/>
	<path fill="#6E98DB" d="M505.5,3H411V0h94.5V3z"/>
	<path fill="#B4C455" d="M403.5,3H309V0h94.5V3z"/>
	<path fill="#EF9797" d="M301.6,3h-94.5V0h94.5V3z"/>
	<path fill="#F9AE5D" d="M198.5,3H104V0h94.5V3z"/>
	<path fill="#8FD4F7" d="M97.7,3H3.2V0h94.5V3z"/>
</g>
</svg>
