<?xml version="1.0" encoding="utf-8"?>
<!-- Generator: Adobe Illustrator 24.0.3, SVG Export Plug-In . SVG Version: 6.00 Build 0)  -->
<svg version="1.1" id="レイヤー_1" xmlns="http://www.w3.org/2000/svg" xmlns:xlink="http://www.w3.org/1999/xlink" x="0px"
	 y="0px" width="16px" height="16px" viewBox="0 0 16 16" enable-background="new 0 0 16 16" xml:space="preserve">
<path id="パス_70" d="M1.9,10.8h12.1c0.5,0,0.8-0.4,0.8-0.8l0,0V2.8c0-0.5-0.4-0.8-0.8-0.8l0,0H1.9C1.5,2,1.1,2.4,1.1,2.8l0,0v7.1
	C1.1,10.4,1.5,10.8,1.9,10.8z M2.4,3.1h11.2v6.4H2.4L2.4,3.1z"/>
<path id="パス_71" d="M15.9,13.1l-1.5-1.3c-0.1-0.1-0.2-0.1-0.4-0.1H2c-0.1,0-0.3,0-0.4,0.1l-1.5,1.3C0,13.2,0,13.3,0,13.4v0.5
	C0,14,0.1,14,0.3,14h15.5c0.1,0,0.2-0.1,0.3-0.2v-0.5C16,13.3,16,13.2,15.9,13.1z M6.3,13.3l0.4-0.6h2.7l0.4,0.6H6.3z"/>
</svg>
