<?xml version="1.0" encoding="utf-8"?>
<!-- Generator: Adobe Illustrator 24.0.3, SVG Export Plug-In . SVG Version: 6.00 Build 0)  -->
<svg version="1.1" id="レイヤー_1" xmlns="http://www.w3.org/2000/svg" xmlns:xlink="http://www.w3.org/1999/xlink" x="0px"
	 y="0px" width="16px" height="16px" viewBox="0 0 16 16" enable-background="new 0 0 16 16" xml:space="preserve">
<path id="パス_59" d="M13.6,9c1,0,1.8-0.8,1.8-1.8s-0.8-1.8-1.8-1.8c-1,0-1.8,0.8-1.8,1.8c0,0,0,0,0,0C11.8,8.2,12.6,9,13.6,9z"/>
<path id="パス_60" d="M16,10.8c-0.1-0.6-0.4-1.1-0.8-1.5c-0.1,0-0.2,0-0.3,0c-0.8,0.5-1.8,0.5-2.6,0c-0.1,0-0.2,0-0.3,0
	c-0.1,0.1-0.2,0.2-0.3,0.3c0.2,0.4,0.4,0.9,0.5,1.4c0.1,0.4,0,0.8-0.1,1.2c0.4,0.1,0.9,0.2,1.4,0.2C14.9,12.4,16.2,12,16,10.8z"/>
<path id="パス_61" d="M8,8.2c1.6,0,3-1.3,3-3s-1.3-3-3-3c-1.6,0-3,1.3-3,3C5,6.9,6.3,8.2,8,8.2z"/>
<path id="パス_62" d="M10.5,8.7c-0.1-0.1-0.3-0.1-0.4,0c-1.3,0.8-2.9,0.8-4.2,0c-0.1,0-0.3,0-0.4,0c-0.6,0.7-1.1,1.5-1.3,2.4
	c-0.3,2,1.8,2.7,3.8,2.7s4.1-0.7,3.8-2.7C11.6,10.2,11.1,9.3,10.5,8.7z"/>
<path id="パス_63" d="M2.4,9c1,0,1.8-0.8,1.8-1.8c0-1-0.8-1.8-1.8-1.8S0.5,6.1,0.5,7.1C0.5,8.2,1.4,9,2.4,9L2.4,9z"/>
<path id="パス_64" d="M3.6,11c0.1-0.5,0.3-1,0.6-1.5C4.1,9.4,4,9.3,3.9,9.3c-0.1,0-0.2,0-0.3,0c-0.8,0.5-1.8,0.5-2.6,0
	c-0.1,0-0.2,0-0.3,0C0.4,9.7,0.2,10.2,0,10.8c-0.2,1.2,1.1,1.6,2.4,1.6c0.4,0,0.9-0.1,1.3-0.2C3.5,11.8,3.5,11.4,3.6,11z"/>
</svg>
