<?xml version="1.0" encoding="utf-8"?>
<!-- Generator: Adobe Illustrator 24.0.3, SVG Export Plug-In . SVG Version: 6.00 Build 0)  -->
<svg version="1.1" id="Layer_1" xmlns="http://www.w3.org/2000/svg" xmlns:xlink="http://www.w3.org/1999/xlink" x="0px" y="0px"
	 width="24px" height="24px" viewBox="0 0 24 24" style="enable-background:new 0 0 24 24;" xml:space="preserve">
<style type="text/css">
	.st0{fill:#008FDE;}
	.st1{fill:#FFFFFF;}
</style>
<circle class="st0" cx="12" cy="12" r="12"/>
<path class="st1" d="M13.3,12.3c-0.3-0.4-0.8-0.6-1.3-0.6c0.4-0.1,0.8-0.3,1.1-0.6c0.2-0.3,0.4-0.7,0.3-1.1c0-0.3-0.1-0.7-0.2-1
	c-0.2-0.3-0.4-0.5-0.7-0.7c-0.3-0.2-0.6-0.3-0.9-0.3C10.9,8,10.3,8,9.6,8H7.4v8.1h2.3c0.7,0,1.3,0,2-0.1c0.4,0,0.7-0.2,1-0.3
	c0.3-0.2,0.6-0.4,0.8-0.8c0.2-0.4,0.3-0.7,0.3-1.1C13.8,13.2,13.6,12.7,13.3,12.3z M9.5,9.8h0.5c0.4,0,0.8,0,1.1,0.2
	c0.2,0.1,0.3,0.4,0.3,0.6c0,0.2-0.1,0.5-0.3,0.6c-0.4,0.1-0.7,0.2-1.1,0.2H9.5V9.8z M11.4,14.4c-0.3,0.2-0.7,0.2-1.1,0.2H9.5v-1.8
	h0.8c0.4,0,0.8,0,1.1,0.2c0.2,0.2,0.3,0.4,0.3,0.7C11.7,14,11.6,14.3,11.4,14.4L11.4,14.4z"/>
<path class="st1" d="M16.1,14c-0.6,0-1,0.5-1,1c0,0.6,0.5,1,1,1c0.6,0,1-0.5,1-1C17.1,14.5,16.7,14,16.1,14C16.1,14,16.1,14,16.1,14
	z"/>
<rect x="15.2" y="8" class="st1" width="1.8" height="5.4"/>
</svg>
