<?xml version="1.0" encoding="utf-8"?>
<!-- Generator: Adobe Illustrator 24.0.3, SVG Export Plug-In . SVG Version: 6.00 Build 0)  -->
<svg version="1.1" id="レイヤー_1" xmlns="http://www.w3.org/2000/svg" xmlns:xlink="http://www.w3.org/1999/xlink" x="0px"
	 y="0px" width="16px" height="16px" viewBox="0 0 16 16" enable-background="new 0 0 16 16" xml:space="preserve">
<radialGradient id="パス_48_1_" cx="-41.5885" cy="80.0993" r="0.6092" gradientTransform="matrix(18.2924 0 0 -17.7057 765.965 1422.3157)" gradientUnits="userSpaceOnUse">
	<stop  offset="0" style="stop-color:#423325;stop-opacity:0.98"/>
	<stop  offset="1" style="stop-color:#1C0A00"/>
</radialGradient>
<path id="パス_48" fill="url(#パス_48_1_)" d="M0.7,0.9h14.7v14.3H0.7V0.9z"/>
<path id="パス_49" fill="#FF7F18" d="M0.7,0.9h14.7v14.3H0.7V0.9z M0,15.8h16V0.2H0V15.8z M10.5,5.8C10.5,5.7,10.5,5.7,10.5,5.8
	l1.1-0.1c0.1,0,0.1,0,0.1,0.1V11c0,0.1,0,0.1-0.1,0.1h-1c-0.1,0-0.1,0-0.1-0.1L10.5,5.8L10.5,5.8z M10.4,4.2c0-0.4,0.3-0.7,0.7-0.7
	c0.4,0,0.7,0.3,0.7,0.7c0,0.4-0.2,0.7-0.6,0.7c0,0-0.1,0-0.1,0c-0.3,0-0.6-0.2-0.7-0.6C10.4,4.3,10.4,4.3,10.4,4.2z M7.4,8
	C7.2,7.2,6.8,5.6,6.6,4.8h0C6.5,5.6,6.1,6.9,5.8,8H7.4z M5.6,9L5,11c0,0.1,0,0.1-0.1,0.1h-1c-0.1,0-0.1,0-0.1-0.1l1.9-6.6
	c0-0.2,0.1-0.4,0.1-0.6c0,0,0-0.1,0.1-0.1h1.4c0,0,0.1,0,0.1,0.1L9.5,11c0,0.1,0,0.1-0.1,0.1H8.3c-0.1,0-0.1,0-0.1-0.1L7.7,9L5.6,9
	L5.6,9z"/>
</svg>
