<?xml version="1.0" encoding="utf-8"?>
<!-- Generator: Adobe Illustrator 24.0.3, SVG Export Plug-In . SVG Version: 6.00 Build 0)  -->
<svg version="1.1" id="Layer_1" xmlns="http://www.w3.org/2000/svg" xmlns:xlink="http://www.w3.org/1999/xlink" x="0px" y="0px"
	 width="16px" height="16px" viewBox="0 0 16 16" enable-background="new 0 0 16 16" xml:space="preserve">
<path d="M8,1C4.1,1,1,4.1,1,8s3.1,7,7,7s7-3.1,7-7S11.9,1,8,1z M8,13.3c-2.9,0-5.3-2.4-5.3-5.3c0-1,0.3-2,0.8-2.8h9
	c1.6,2.5,0.8,5.8-1.7,7.3C10,13,9,13.3,8,13.3z"/>
<path d="M5.5,6.9C5,6.9,4.5,7.3,4.5,7.8c0,0.5,0.4,0.9,0.9,0.9c0.5,0,0.9-0.4,0.9-0.9C6.4,7.3,6,6.9,5.5,6.9
	C5.5,6.9,5.5,6.9,5.5,6.9z"/>
<path d="M10.6,6.9c-0.5,0-0.9,0.4-0.9,0.9c0,0.5,0.4,0.9,0.9,0.9c0.5,0,0.9-0.4,0.9-0.9C11.5,7.3,11.1,6.9,10.6,6.9z"/>
<rect x="6.2" y="10.4" width="3.8" height="0.9"/>
</svg>
