<?xml version="1.0" encoding="utf-8"?>
<!-- Generator: Adobe Illustrator 24.0.3, SVG Export Plug-In . SVG Version: 6.00 Build 0)  -->
<svg version="1.1" id="HTMLタグアイコン" xmlns="http://www.w3.org/2000/svg" xmlns:xlink="http://www.w3.org/1999/xlink"
	 x="0px" y="0px" width="16px" height="16px" viewBox="0 0 16 16" enable-background="new 0 0 16 16" xml:space="preserve">
<path id="パス_72" d="M8,0C3.6,0,0,3.6,0,8s3.6,8,8,8s8-3.6,8-8S12.4,0,8,0z M5.8,6.3C5.8,6.4,5.8,6.4,5.8,6.3L3.6,8.1l2.3,1.7
	c0,0,0,0,0,0v1c0,0,0,0,0,0c0,0,0,0,0,0c0,0,0,0,0,0L2.6,8.4c0,0,0,0,0,0V7.7c0,0,0,0,0,0l3.2-2.4c0,0,0,0,0,0c0,0,0,0,0,0L5.8,6.3z
	 M7.5,11.3C7.5,11.3,7.4,11.3,7.5,11.3l-0.9,0c0,0,0,0,0,0c0,0,0,0,0,0l2.1-6.5c0,0,0,0,0,0h0.9c0,0,0,0,0,0c0,0,0,0,0,0L7.5,11.3z
	 M13.5,8.4C13.5,8.4,13.5,8.4,13.5,8.4l-3.3,2.4c0,0,0,0,0,0c0,0,0,0,0,0c0,0,0,0,0,0v-1c0,0,0,0,0,0L12.4,8l-2.3-1.7c0,0,0,0,0,0
	v-1c0,0,0,0,0,0c0,0,0,0,0,0c0,0,0,0,0,0l3.2,2.4c0,0,0,0,0,0L13.5,8.4z"/>
</svg>
