<?xml version="1.0" encoding="utf-8"?>
<!-- Generator: Adobe Illustrator 24.0.3, SVG Export Plug-In . SVG Version: 6.00 Build 0)  -->
<svg version="1.1" id="Layer_1" xmlns="http://www.w3.org/2000/svg" xmlns:xlink="http://www.w3.org/1999/xlink" x="0px" y="0px"
	 width="24px" height="24px" viewBox="0 0 24 24" style="enable-background:new 0 0 24 24;" xml:space="preserve">
<style type="text/css">
	.st0{fill:#00B900;}
	.st1{fill-rule:evenodd;clip-rule:evenodd;fill:#FFFFFF;}
</style>
<circle class="st0" cx="12" cy="12" r="12"/>
<path class="st1" d="M18.3,11.2c0-2.7-2.7-4.9-6-4.9s-6,2.2-6,4.9c0,2.4,2.1,4.4,5,4.8c0.2,0,0.5,0.1,0.5,0.3c0,0.2,0.1,0.4,0,0.5
	l-0.1,0.5c0,0.2-0.1,0.6,0.5,0.3c1.7-0.9,3.3-2.1,4.7-3.5C17.8,13.4,18.3,12.3,18.3,11.2L18.3,11.2z M8.8,9.9c0.1,0,0.1,0.1,0.1,0.1
	l0,0v2.1h1.1c0.1,0,0.1,0.1,0.1,0.1l0,0v0.4c0,0.1-0.1,0.1-0.1,0.1H8.4c0,0-0.1,0-0.1,0l0,0l0,0c0,0,0-0.1,0-0.1V10
	c0-0.1,0.1-0.1,0.1-0.1l0,0L8.8,9.9L8.8,9.9z M16.3,9.9c0.1,0,0.1,0.1,0.1,0.1v0.4c0,0.1,0,0.1-0.1,0.1c0,0,0,0,0,0h-1.1V11h1.1
	c0.1,0,0.1,0.1,0.1,0.1v0.4c0,0.1-0.1,0.1-0.1,0.1h-1.1v0.4h1.1c0.1,0,0.1,0.1,0.1,0.1v0.4c0,0.1-0.1,0.1-0.1,0.1h-1.7
	c0,0-0.1,0-0.1,0l0,0l0,0c0,0,0-0.1,0-0.1V10c0,0,0-0.1,0-0.1l0,0l0,0c0,0,0.1,0,0.1,0L16.3,9.9z M11.1,9.9c0.1,0,0.1,0.1,0.1,0.1
	v2.6c0,0.1-0.1,0.1-0.1,0.1l0,0h-0.4c-0.1,0-0.1-0.1-0.1-0.1l0,0V10c0-0.1,0.1-0.1,0.1-0.1L11.1,9.9z M12.1,9.9L12.1,9.9L12.1,9.9
	L12.1,9.9L12.1,9.9L12.1,9.9L12.1,9.9L12.1,9.9L12.1,9.9L12.1,9.9L12.1,9.9L12.1,9.9L12.1,9.9L12.1,9.9L12.1,9.9l1.3,1.6V10
	c0-0.1,0.1-0.1,0.1-0.1H14c0.1,0,0.1,0.1,0.1,0.1c0,0,0,0,0,0v2.6c0,0.1-0.1,0.1-0.1,0.1l0,0h-0.4h0l0,0h0l0,0h0h0l0,0h0l0,0l0,0
	l-1.2-1.6v1.5c0,0.1-0.1,0.1-0.1,0.1l0,0h-0.4c-0.1,0-0.1-0.1-0.1-0.1l0,0V10c0-0.1,0.1-0.1,0.1-0.1L12.1,9.9L12.1,9.9z"/>
</svg>
