<?xml version="1.0" encoding="utf-8"?>
<!-- Generator: Adobe Illustrator 24.0.3, SVG Export Plug-In . SVG Version: 6.00 Build 0)  -->
<svg version="1.1" id="Layer_1" xmlns="http://www.w3.org/2000/svg" xmlns:xlink="http://www.w3.org/1999/xlink" x="0px" y="0px"
	 width="24px" height="24px" viewBox="0 0 24 24" enable-background="new 0 0 24 24" xml:space="preserve">
<circle fill="#1DA1F2" cx="12" cy="12" r="12"/>
<path fill="#FFFFFF" d="M17.7,8.5c-0.4,0.2-0.9,0.3-1.3,0.4c0.5-0.3,0.9-0.8,1-1.3c-0.5,0.3-1,0.5-1.5,0.6c-0.9-0.9-2.4-1-3.3-0.1
	c-0.6,0.6-0.9,1.4-0.7,2.3C10,10.3,8.3,9.4,7.1,8c-0.6,0.9-0.3,2.3,0.7,3c-0.4,0-0.7-0.1-1.1-0.3c0,1.1,0.8,2.1,1.9,2.3
	c-0.3,0.1-0.7,0.1-1.1,0c0.3,1,1.2,1.6,2.2,1.6c-1,0.8-2.2,1.1-3.5,1c1.1,0.7,2.3,1.1,3.6,1.1c3.7,0,6.6-2.9,6.7-6.6
	c0-0.1,0-0.3,0-0.4C17,9.4,17.4,9,17.7,8.5L17.7,8.5z"/>
</svg>
