<?xml version="1.0" encoding="utf-8"?>
<!-- Generator: Adobe Illustrator 24.0.3, SVG Export Plug-In . SVG Version: 6.00 Build 0)  -->
<svg version="1.1" id="intellij-idea-1" xmlns="http://www.w3.org/2000/svg" xmlns:xlink="http://www.w3.org/1999/xlink" x="0px"
	 y="0px" width="16px" height="16px" viewBox="0 0 16 16" enable-background="new 0 0 16 16" xml:space="preserve">
<linearGradient id="パス_50_1_" gradientUnits="userSpaceOnUse" x1="-39.2796" y1="75.8065" x2="-38.4812" y2="75.8065" gradientTransform="matrix(9.312 0 0 -8.281 365.947 636.9158)">
	<stop  offset="0.26" style="stop-color:#F97A12"/>
	<stop  offset="0.46" style="stop-color:#B07B58"/>
	<stop  offset="0.72" style="stop-color:#577BAE"/>
	<stop  offset="0.91" style="stop-color:#1E7CE5"/>
	<stop  offset="1" style="stop-color:#087CFA"/>
</linearGradient>
<path id="パス_50" fill="url(#パス_50_1_)" d="M4.1,12.5l-3.9-3l1.9-3.6L7.6,8L4.1,12.5z"/>
<linearGradient id="パス_51_1_" gradientUnits="userSpaceOnUse" x1="-40.6451" y1="80.3747" x2="-39.6779" y2="80.0299" gradientTransform="matrix(12.688 0 0 -19.688 521.5842 1588.104)">
	<stop  offset="0" style="stop-color:#F97A12"/>
	<stop  offset="7.000000e-02" style="stop-color:#CB7A3E"/>
	<stop  offset="0.15" style="stop-color:#9E7B6A"/>
	<stop  offset="0.24" style="stop-color:#757B91"/>
	<stop  offset="0.33" style="stop-color:#537BB1"/>
	<stop  offset="0.43" style="stop-color:#387CCC"/>
	<stop  offset="0.54" style="stop-color:#237CE0"/>
	<stop  offset="0.66" style="stop-color:#147CEF"/>
	<stop  offset="0.79" style="stop-color:#0B7CF7"/>
	<stop  offset="1" style="stop-color:#087CFA"/>
</linearGradient>
<path id="パス_51" fill="url(#パス_51_1_)" d="M16,4.3l-0.3,9.3L9.5,16l-3.7-2.4L11.2,8L8.9,2.8L11,0.2L16,4.3z"/>
<linearGradient id="パス_52_1_" gradientUnits="userSpaceOnUse" x1="-38.6676" y1="77.8216" x2="-39.0524" y2="78.656" gradientTransform="matrix(8.875 0 0 -12.218 357.625 960.6251)">
	<stop  offset="0" style="stop-color:#FE315D"/>
	<stop  offset="8.000000e-02" style="stop-color:#CB417E"/>
	<stop  offset="0.16" style="stop-color:#9E4E9B"/>
	<stop  offset="0.25" style="stop-color:#755BB4"/>
	<stop  offset="0.34" style="stop-color:#5365CA"/>
	<stop  offset="0.44" style="stop-color:#386DDB"/>
	<stop  offset="0.54" style="stop-color:#2374E9"/>
	<stop  offset="0.66" style="stop-color:#1478F3"/>
	<stop  offset="0.79" style="stop-color:#0B7BF8"/>
	<stop  offset="1" style="stop-color:#087CFA"/>
</linearGradient>
<path id="パス_52" fill="url(#パス_52_1_)" d="M16,4.3L11.1,10L8.9,2.8L11,0.3L16,4.3z"/>
<linearGradient id="パス_53_1_" gradientUnits="userSpaceOnUse" x1="-40.9723" y1="80.4227" x2="-40.3051" y2="79.5539" gradientTransform="matrix(15.344 0 0 -19.5 631.136 1572)">
	<stop  offset="0" style="stop-color:#FE315D"/>
	<stop  offset="4.000000e-02" style="stop-color:#F63462"/>
	<stop  offset="0.1" style="stop-color:#DF3A71"/>
	<stop  offset="0.17" style="stop-color:#C24383"/>
	<stop  offset="0.29" style="stop-color:#AD4A91"/>
	<stop  offset="0.55" style="stop-color:#755BB4"/>
	<stop  offset="0.92" style="stop-color:#1D76ED"/>
	<stop  offset="1" style="stop-color:#087CFA"/>
</linearGradient>
<path id="パス_53" fill="url(#パス_53_1_)" d="M7.7,13.3l-6.4,2.3l1-3.6l1.3-4.4L0,6.3L2.3,0l5,0.6l5,5.7L7.7,13.3z"/>
<path id="パス_54" d="M3,3h10v10H3V3z"/>
<path id="パス_55" fill="#FFFFFF" d="M4,11.1h3.8v0.6H4V11.1z M6.6,5V4.3H4.6V5h0.6v2.6H4.6v0.8h2.1V7.7H6.1V5H6.6z M8.6,8.5
	c-0.3,0-0.6,0-0.8-0.2C7.6,8.2,7.4,8.1,7.3,7.9l0.6-0.6C7.9,7.3,8,7.4,8.2,7.5c0.1,0.1,0.3,0.1,0.4,0.1c0.2,0,0.3-0.1,0.4-0.2
	c0.1-0.1,0.2-0.3,0.2-0.5V4.2h0.9v2.7c0,0.2,0,0.4-0.1,0.7C9.9,7.8,9.8,8,9.6,8.2C9.3,8.4,9,8.5,8.6,8.5z"/>
</svg>
