<?xml version="1.0" encoding="utf-8"?>
<!-- Generator: Adobe Illustrator 24.0.3, SVG Export Plug-In . SVG Version: 6.00 Build 0)  -->
<svg version="1.1" id="レイヤー_1" xmlns="http://www.w3.org/2000/svg" xmlns:xlink="http://www.w3.org/1999/xlink" x="0px"
	 y="0px" width="16px" height="16px" viewBox="0 0 16 16" enable-background="new 0 0 16 16" xml:space="preserve">
<path id="パス_65" d="M15.6,0.4c-0.5-0.5-1.3-0.5-1.8,0l-1.2,1.2l1.8,1.8l1.2-1.2C16.1,1.7,16.1,0.9,15.6,0.4z"/>
<path id="パス_66" d="M15.6,0.4L15.6,0.4L15.6,0.4L15.6,0.4z"/>
<path id="パス_67" d="M1.8,11.8c-0.2,0.2-0.2,0.6,0,0.9l1.5,1.5c0.2,0.2,0.6,0.2,0.9,0c0,0,0,0,0,0l4-4L5.8,7.9L1.8,11.8z"/>
<path id="パス_68" d="M0.6,15.1L0,15.7L0.3,16l0.6-0.6l2.4-0.8l-1.9-1.9L0.6,15.1z"/>
<path id="パス_69" d="M6.2,7.4l2.4,2.4L14.4,4L12,1.6L6.2,7.4z M12.6,3.4c0.2,0.2,0.2,0.5,0,0.7c0,0,0,0,0,0L9.7,7
	C9.5,7.2,9.2,7.2,9,7C8.8,6.8,8.8,6.5,9,6.3l2.8-2.8C12,3.2,12.4,3.2,12.6,3.4C12.6,3.4,12.6,3.4,12.6,3.4z"/>
</svg>
