<?xml version="1.0" encoding="utf-8"?>
<!-- Generator: Adobe Illustrator 23.0.2, SVG Export Plug-In . SVG Version: 6.00 Build 0)  -->
<svg version="1.1" xmlns="http://www.w3.org/2000/svg" xmlns:xlink="http://www.w3.org/1999/xlink" x="0px" y="0px" width="334px"
	 height="62px" viewBox="0 0 334 62" enable-background="new 0 0 334 62" xml:space="preserve">
<g id="Layer_1">
	<g>
		<g>
			<path fill="#660033" d="M73.495,0.471c-5.076,0-9.865,1.239-14.076,3.432c-6.281,3.084-8.035,3.084-14.316-0.002
				c-4.213-2.191-9-3.43-14.074-3.43c-16.861,0-30.531,13.666-30.531,30.527c0,16.862,13.67,30.53,30.531,30.53
				c5.072,0,9.857-1.238,14.066-3.428c6.289-3.091,8.043-3.091,14.33-0.001c4.211,2.189,8.996,3.429,14.07,3.429
				c16.863,0,30.531-13.668,30.531-30.53C104.026,14.137,90.358,0.471,73.495,0.471z"/>
			<g>
				<path fill="#FFFBDA" d="M49.898,29.039v10.313c0,2.213-1.637,3.851-3.807,3.851c-2.168,0-3.807-1.638-3.807-3.851v-9.207
					c0-1.992-1.238-3.275-3.143-3.275c-1.859,0-3.055,1.283-3.055,3.275v9.207c0,2.213-1.637,3.851-3.805,3.851
					c-2.17,0-3.807-1.638-3.807-3.851v-9.207c0-1.992-1.24-3.275-3.143-3.275c-1.859,0-3.055,1.283-3.055,3.275v9.207
					c0,2.213-1.639,3.851-3.807,3.851s-3.807-1.638-3.807-3.851V23.861c0-2.214,1.594-3.852,3.719-3.852
					c1.549,0,2.787,0.841,3.318,2.169c1.551-1.373,3.631-2.169,5.976-2.169c2.699,0,4.912,1.018,6.418,2.833
					c1.77-1.771,4.381-2.833,7.258-2.833C46.577,20.009,49.898,23.506,49.898,29.039z"/>
			</g>
			<g>
				<path fill="#FFFBDA" d="M85.075,29.117V39.43c0,2.212-1.639,3.85-3.807,3.85c-2.17,0-3.807-1.638-3.807-3.85v-9.207
					c0-1.947-1.328-3.275-3.232-3.275c-1.902,0-3.186,1.328-3.186,3.275v9.207c0,2.212-1.639,3.85-3.807,3.85
					c-2.168,0-3.807-1.638-3.807-3.85V23.938c0-2.213,1.594-3.852,3.719-3.852c1.549,0,2.787,0.886,3.363,2.213
					c1.549-1.371,3.717-2.213,6.107-2.213C81.755,20.086,85.075,23.628,85.075,29.117z"/>
			</g>
		</g>
		<g>
			<path fill="#333333" d="M150.337,29.036v8.557c0,1.836-1.359,3.195-3.158,3.195c-1.801,0-3.158-1.359-3.158-3.195v-7.639
				c0-1.651-1.027-2.717-2.607-2.717c-1.543,0-2.533,1.066-2.533,2.717v7.639c0,1.836-1.359,3.195-3.158,3.195
				c-1.801,0-3.158-1.359-3.158-3.195v-7.639c0-1.651-1.029-2.717-2.607-2.717c-1.543,0-2.533,1.066-2.533,2.717v7.639
				c0,1.836-1.359,3.195-3.158,3.195c-1.799,0-3.158-1.359-3.158-3.195V24.74c0-1.836,1.322-3.194,3.084-3.194
				c1.285,0,2.314,0.697,2.754,1.799c1.287-1.139,3.012-1.799,4.957-1.799c2.24,0,4.076,0.844,5.326,2.35
				c1.469-1.468,3.635-2.35,6.021-2.35C147.583,21.545,150.337,24.447,150.337,29.036z"/>
			<path fill="#333333" d="M173.107,31.167c0,5.361-4.406,9.621-10.024,9.621c-5.619,0-9.988-4.223-9.988-9.621
				c0-5.398,4.369-9.621,9.988-9.621C168.7,21.545,173.107,25.805,173.107,31.167z M159.558,31.167c0,2.275,1.432,3.818,3.562,3.818
				c2.057,0,3.525-1.615,3.525-3.818c0-2.204-1.506-3.82-3.525-3.82C161.026,27.346,159.558,28.889,159.558,31.167z"/>
			<path fill="#333333" d="M193.925,29.036v8.557c0,1.836-1.359,3.195-3.158,3.195s-3.158-1.359-3.158-3.195v-7.639
				c0-1.615-1.102-2.717-2.68-2.717c-1.58,0-2.645,1.102-2.645,2.717v7.639c0,1.836-1.357,3.195-3.158,3.195
				c-1.799,0-3.158-1.359-3.158-3.195V24.74c0-1.836,1.322-3.194,3.086-3.194c1.283,0,2.312,0.734,2.789,1.836
				c1.287-1.139,3.086-1.836,5.068-1.836C191.171,21.545,193.925,24.483,193.925,29.036z"/>
			<path fill="#333333" d="M216.638,31.167c0,5.361-4.406,9.621-10.025,9.621c-5.617,0-9.988-4.223-9.988-9.621
				c0-5.398,4.371-9.621,9.988-9.621C212.232,21.545,216.638,25.805,216.638,31.167z M203.087,31.167
				c0,2.275,1.432,3.818,3.562,3.818c2.057,0,3.525-1.615,3.525-3.818c0-2.204-1.506-3.82-3.525-3.82
				C204.556,27.346,203.087,28.889,203.087,31.167z"/>
			<path fill="#333333" d="M248.099,24.593c0,0.55-0.148,1.101-0.404,1.689l-6.061,12.521c-0.623,1.285-1.615,1.983-2.865,1.983
				c-1.248,0-2.238-0.698-2.863-1.983l-3.158-6.794l-3.156,6.794c-0.625,1.285-1.617,1.983-2.865,1.983
				c-1.248,0-2.24-0.698-2.865-1.983l-6.059-12.521c-0.256-0.588-0.404-1.14-0.404-1.689c0-1.69,1.359-3.048,3.049-3.048
				c1.176,0,2.203,0.624,2.717,1.652l3.709,7.639l2.828-6.868c0.662-1.614,1.689-2.423,3.047-2.423c1.359,0,2.387,0.809,3.049,2.423
				l2.826,6.868l3.709-7.639c0.516-1.028,1.543-1.652,2.717-1.652C246.739,21.545,248.099,22.904,248.099,24.593z"/>
			<path fill="#333333" d="M267.519,30.247v0.075c0,1.8-1.395,3.048-3.305,3.048h-8.812c0.662,1.395,2.02,2.093,4.076,2.093
				c1.027,0,2.238-0.221,3.195-0.625c0.439-0.182,0.769-0.293,1.139-0.293c1.395,0,2.496,1.064,2.496,2.46
				c0,1.028-0.478,1.8-1.58,2.424c-1.578,0.881-3.488,1.359-5.471,1.359c-5.947,0-10.318-4.076-10.318-9.621
				c0-5.472,4.15-9.621,9.658-9.621C263.7,21.545,267.519,25.254,267.519,30.247z M255.181,29.256h6.352
				c-0.072-1.579-1.32-2.754-3.047-2.754C256.87,26.503,255.657,27.567,255.181,29.256z"/>
			<path fill="#333333" d="M290.265,31.202c0,5.619-3.672,9.586-8.812,9.586c-2.203,0-3.893-0.734-5.068-2.094
				c-0.402,1.249-1.469,2.094-2.863,2.094c-1.764,0-3.084-1.359-3.084-3.195V15.561c0-1.836,1.358-3.195,3.156-3.195
				c1.801,0,3.158,1.359,3.158,3.195v7.674c1.139-1.103,2.719-1.689,4.701-1.689C286.593,21.545,290.265,25.584,290.265,31.202z
				 M283.802,31.167c0-2.277-1.506-3.893-3.6-3.893c-2.092,0-3.561,1.615-3.561,3.928c0,2.278,1.432,3.855,3.561,3.855
				C282.333,35.057,283.802,33.48,283.802,31.167z"/>
			<path fill="#333333" d="M292.153,36.674c0-2.277,1.725-4.113,4.186-4.113c2.35,0,4.076,1.836,4.076,4.113
				c0,2.313-1.727,4.113-4.076,4.113C293.878,40.788,292.153,38.988,292.153,36.674z"/>
			<path fill="#333333" d="M299.909,46.919c-1.066-0.514-1.654-1.322-1.654-2.46c0-1.58,1.139-2.717,2.682-2.717h0.109
				c1.873,0,2.389-0.662,2.389-3.158V24.74c0-1.836,1.32-3.194,3.156-3.194c1.801,0,3.158,1.358,3.158,3.194v15.203
				c0,4.7-2.717,7.454-7.344,7.454C301.304,47.397,300.532,47.213,299.909,46.919z M310.337,15.487c0,2.019-1.727,3.598-3.781,3.598
				c-2.057,0-3.746-1.579-3.746-3.598c0-2.057,1.689-3.637,3.746-3.637C308.61,11.85,310.337,13.43,310.337,15.487z"/>
			<path fill="#333333" d="M333.503,31.129c0,5.619-3.672,9.658-8.812,9.658c-1.982,0-3.561-0.588-4.699-1.689v5.103
				c0,1.836-1.357,3.195-3.158,3.195c-1.799,0-3.158-1.359-3.158-3.195V24.63c0-1.763,1.322-3.085,3.084-3.085
				c1.397,0,2.498,0.844,2.902,2.055c1.137-1.357,2.863-2.055,5.029-2.055C329.831,21.545,333.503,25.511,333.503,31.129z
				 M327.04,31.167c0-2.314-1.467-3.893-3.598-3.893c-2.129,0-3.56,1.578-3.56,3.856c0,2.312,1.467,3.928,3.56,3.928
				C325.536,35.057,327.04,33.442,327.04,31.167z"/>
		</g>
	</g>
</g>
<g id="右足">
</g>
<g id="左足">
</g>
<g id="身体">
</g>
<g id="右手">
</g>
<g id="左手">
</g>
<g id="頭">
</g>
</svg>
